<svg width="28" height="28" viewBox="0 0 28 28" fill="none" xmlns="http://www.w3.org/2000/svg">
<rect width="28" height="28" rx="2" fill="white"/>
<path d="M11.243 21.0001H23V23.0001H5V18.7571L14.9 8.85708L19.142 13.1011L11.242 21.0001H11.243ZM16.313 7.44408L18.435 5.32208C18.6225 5.13461 18.8768 5.0293 19.142 5.0293C19.4072 5.0293 19.6615 5.13461 19.849 5.32208L22.678 8.15108C22.8655 8.33861 22.9708 8.59292 22.9708 8.85808C22.9708 9.12325 22.8655 9.37756 22.678 9.56508L20.556 11.6861L16.314 7.44408H16.313Z" fill="#C8C7CC"/>
<path d="M11.243 21.0001H23V23.0001H5V18.7571L14.9 8.85708L19.142 13.1011L11.242 21.0001H11.243ZM16.313 7.44408L18.435 5.32208C18.6225 5.13461 18.8768 5.0293 19.142 5.0293C19.4072 5.0293 19.6615 5.13461 19.849 5.32208L22.678 8.15108C22.8655 8.33861 22.9708 8.59292 22.9708 8.85808C22.9708 9.12325 22.8655 9.37756 22.678 9.56508L20.556 11.6861L16.314 7.44408H16.313Z" fill="#EB5757"/>
</svg>
