<svg width="38" height="38" viewBox="0 0 38 38" fill="none" xmlns="http://www.w3.org/2000/svg">
<path fill-rule="evenodd" clip-rule="evenodd" d="M1.49606 23.3386C2.32232 23.3386 2.99213 24.0084 2.99213 24.8347V32.6142C2.99213 33.2491 3.24432 33.8579 3.69322 34.3068C4.14213 34.7557 4.75098 35.0079 5.38583 35.0079H32.6142C33.249 35.0079 33.8579 34.7557 34.3068 34.3068C34.7557 33.8579 35.0079 33.2491 35.0079 32.6142V24.8347C35.0079 24.0084 35.6777 23.3386 36.5039 23.3386C37.3302 23.3386 38 24.0084 38 24.8347V32.6142C38 34.0426 37.4326 35.4125 36.4225 36.4226C35.4125 37.4326 34.0426 38 32.6142 38H5.38583C3.95742 38 2.58751 37.4326 1.57747 36.4226C0.567434 35.4125 0 34.0426 0 32.6142V24.8347C0 24.0084 0.66981 23.3386 1.49606 23.3386Z" fill="#060606"/>
<path fill-rule="evenodd" clip-rule="evenodd" d="M17.9419 0.438187C18.5261 -0.146062 19.4734 -0.146062 20.0576 0.438187L29.7821 10.1626C30.3663 10.7468 30.3663 11.6941 29.7821 12.2783C29.1978 12.8626 28.2506 12.8626 27.6663 12.2783L18.9998 3.61182L10.3332 12.2783C9.74899 12.8626 8.80173 12.8626 8.21748 12.2783C7.63323 11.6941 7.63323 10.7468 8.21748 10.1626L17.9419 0.438187Z" fill="#060606"/>
<path fill-rule="evenodd" clip-rule="evenodd" d="M19 0C19.8262 0 20.496 0.66981 20.496 1.49606V24.8346C20.496 25.6609 19.8262 26.3307 19 26.3307C18.1737 26.3307 17.5039 25.6609 17.5039 24.8346V1.49606C17.5039 0.66981 18.1737 0 19 0Z" fill="#060606"/>
</svg>
