<svg width="18" height="18" viewBox="0 0 18 18" fill="none" xmlns="http://www.w3.org/2000/svg">
<path d="M11.2 1.1H10.7V1.6V6.4V6.9H11.2H16H16.5V6.4V1.6V1.1H16H11.2ZM1.6 10.7H1.1V11.2V12.8V13.3H1.6C1.67957 13.3 1.75587 13.3316 1.81213 13.3879C1.86839 13.4441 1.9 13.5204 1.9 13.6C1.9 13.6796 1.86839 13.7559 1.81213 13.8121C1.75587 13.8684 1.67957 13.9 1.6 13.9H1.1V14.4V16V16.5H1.6H3.2H3.7V16C3.7 15.9204 3.73161 15.8441 3.78787 15.7879C3.84413 15.7316 3.92043 15.7 4 15.7C4.07957 15.7 4.15587 15.7316 4.21213 15.7879C4.26839 15.8441 4.3 15.9204 4.3 16V16.5H4.8H6.4H6.9V16V14.4V13.9H6.4C6.32043 13.9 6.24413 13.8684 6.18787 13.8121C6.13161 13.7559 6.1 13.6796 6.1 13.6C6.1 13.5204 6.13161 13.4441 6.18787 13.3879C6.24413 13.3316 6.32043 13.3 6.4 13.3H6.9V12.8V11.2V10.7H6.4H4.8H4.3V11.2C4.3 11.2796 4.26839 11.3559 4.21213 11.4121C4.15587 11.4684 4.07957 11.5 4 11.5C3.92043 11.5 3.84413 11.4684 3.78787 11.4121C3.73161 11.3559 3.7 11.2796 3.7 11.2V10.7H3.2H1.6ZM12 10.7H11.5V11.2V11.5H11.2H10.7V12V15.2V15.7H11.2H11.5V16V16.5H12H15.2H15.7V16V15.7H16H16.5V15.2V12V11.5H16H15.7V11.2V10.7H15.2H12ZM0.5 1.6C0.5 0.992142 0.992142 0.5 1.6 0.5H6.4C7.00786 0.5 7.5 0.992142 7.5 1.6V6.4C7.5 7.00786 7.00786 7.5 6.4 7.5H1.6C0.992142 7.5 0.5 7.00786 0.5 6.4V1.6ZM10.1 1.6C10.1 1.00169 10.6017 0.5 11.2 0.5H16C16.5983 0.5 17.1 1.00169 17.1 1.6V6.4C17.1 6.99831 16.5983 7.5 16 7.5H11.2C10.6017 7.5 10.1 6.99831 10.1 6.4V1.6ZM0.5 11.2C0.5 10.6017 1.00169 10.1 1.6 10.1H6.4C6.99831 10.1 7.5 10.6017 7.5 11.2V16C7.5 16.5983 6.99831 17.1 6.4 17.1H1.6C1.00169 17.1 0.5 16.5983 0.5 16V11.2ZM10.1 11.2C10.1 10.6017 10.6017 10.1 11.2 10.1H16C16.5983 10.1 17.1 10.6017 17.1 11.2V16C17.1 16.5983 16.5983 17.1 16 17.1H11.2C10.6017 17.1 10.1 16.5983 10.1 16V11.2ZM13.9 13.9H13.3V13.3H13.9V13.9Z" fill="#060606" stroke="#060606"/>
</svg>
