<svg width="17" height="19" viewBox="0 0 17 19" fill="none" xmlns="http://www.w3.org/2000/svg">
<path d="M16.1955 9.5C16.1955 4.81325 12.787 1 8.59776 1C4.4085 1 1 4.81325 1 9.5C1 11.9755 1.95152 14.2068 3.4661 15.7616L3.45891 15.7687L3.70536 16.0011C3.72138 16.0163 3.73879 16.0286 3.75481 16.0435C3.88577 16.1649 4.02142 16.2802 4.15957 16.3918C4.20432 16.428 4.24908 16.4641 4.29467 16.4994C4.4422 16.6131 4.5936 16.721 4.74832 16.8233C4.78203 16.8455 4.81601 16.8672 4.84999 16.8888C5.01936 16.9967 5.19231 17.0984 5.36941 17.1917C5.38239 17.1985 5.39565 17.2047 5.40864 17.2115C5.98579 17.5116 6.6019 17.732 7.24619 17.8621C7.26304 17.8655 7.2799 17.8689 7.29703 17.8723C7.49706 17.911 7.6993 17.9419 7.90402 17.9626C7.92889 17.9651 7.95375 17.9666 7.97889 17.9691C8.18279 17.9879 8.3889 18 8.59776 18C8.8047 18 9.00887 17.9879 9.21166 17.9697C9.23736 17.9672 9.26305 17.9657 9.28875 17.9632C9.49181 17.9425 9.6924 17.9125 9.89049 17.8745C9.90762 17.8711 9.92503 17.8677 9.94216 17.864C10.5768 17.7367 11.184 17.5212 11.7537 17.2288C11.7747 17.218 11.796 17.2078 11.817 17.1967C11.9875 17.107 12.1541 17.0103 12.3174 16.9074C12.358 16.8817 12.3983 16.8557 12.4386 16.8292C12.5873 16.7312 12.7334 16.6289 12.8754 16.5201C12.9266 16.4811 12.9766 16.44 13.0271 16.3992C13.1484 16.3015 13.2675 16.2008 13.3833 16.0954C13.4089 16.0722 13.4366 16.0521 13.4617 16.0283L13.7145 15.7922L13.7071 15.7851C15.2349 14.2297 16.1955 11.9882 16.1955 9.5ZM1.55256 9.5C1.55256 5.15387 4.71296 1.61818 8.59776 1.61818C12.4826 1.61818 15.643 5.15387 15.643 9.5C15.643 11.842 14.7243 13.9475 13.27 15.3922C13.1887 15.3295 13.107 15.2732 13.0233 15.2262L10.684 13.9178C10.474 13.8004 10.3436 13.5642 10.3436 13.3018V12.3878C10.3977 12.313 10.4549 12.2283 10.5141 12.1353C10.8169 11.6568 11.0597 11.1246 11.2368 10.5518C11.5869 10.3658 11.8129 9.97569 11.8129 9.53524V8.43951C11.8129 8.17153 11.725 7.91158 11.5678 7.70727V6.26475C11.5822 6.10433 11.633 5.199 11.0476 4.45224C10.5384 3.80191 9.71422 3.47273 8.59776 3.47273C7.48131 3.47273 6.65716 3.80191 6.14797 4.45193C5.56253 5.19869 5.61336 6.10402 5.62773 6.26444V7.70696C5.4708 7.91127 5.38267 8.17122 5.38267 8.4392V9.53493C5.38267 9.87524 5.51915 10.1927 5.75289 10.4069C5.97667 11.3876 6.43724 12.1301 6.60743 12.3817V13.2762C6.60743 13.5284 6.48448 13.7602 6.28639 13.8814L4.10182 15.2145C4.0322 15.2568 3.96313 15.3063 3.89406 15.3616C2.45767 13.9175 1.55256 11.825 1.55256 9.5ZM12.7307 15.8772C12.634 15.9557 12.5356 16.0317 12.4359 16.1043C12.39 16.1377 12.3444 16.1711 12.2977 16.2036C12.1673 16.2938 12.0347 16.3797 11.8993 16.4601C11.8695 16.4777 11.8394 16.4944 11.8093 16.5117C11.4982 16.6901 11.1763 16.8434 10.8456 16.9679C10.834 16.9723 10.8224 16.9769 10.8105 16.9812C10.6373 17.0455 10.4618 17.1027 10.2845 17.1519C10.2839 17.1519 10.2834 17.1522 10.2828 17.1522C10.1038 17.2016 9.92254 17.2427 9.74019 17.2764C9.73522 17.2773 9.73025 17.2786 9.72527 17.2795C9.5537 17.3107 9.38075 17.3333 9.20724 17.3503C9.17658 17.3534 9.14591 17.3555 9.11497 17.358C8.94339 17.3725 8.77099 17.3818 8.59776 17.3818C8.4226 17.3818 8.24799 17.3722 8.07421 17.3577C8.0441 17.3552 8.01398 17.3531 7.98414 17.35C7.80898 17.3327 7.63464 17.3095 7.46197 17.278C7.45423 17.2764 7.4465 17.2749 7.43876 17.2733C7.07352 17.205 6.71407 17.1046 6.36402 16.9732C6.35325 16.9692 6.3422 16.9649 6.33142 16.9608C6.15764 16.8947 5.98579 16.8214 5.81698 16.7405C5.81588 16.7398 5.8145 16.7392 5.81339 16.7386C5.6537 16.6616 5.49705 16.5763 5.34233 16.4864C5.32216 16.4746 5.30172 16.4635 5.28182 16.4515C5.14064 16.3671 5.0025 16.2759 4.8663 16.1807C4.82596 16.1523 4.7859 16.1235 4.74611 16.0945C4.62068 16.0027 4.49691 15.9071 4.37645 15.8061C4.36401 15.7956 4.35213 15.7844 4.3397 15.7739C4.34854 15.7684 4.35738 15.7628 4.36622 15.7572L6.55079 14.4241C6.92653 14.1948 7.15999 13.7549 7.15999 13.2762L7.15972 12.1628L7.09617 12.0769C7.09009 12.0692 6.49277 11.2563 6.26705 10.1556L6.24191 10.0332L6.14769 9.96487C6.0148 9.86875 5.93523 9.70802 5.93523 9.53462V8.43889C5.93523 8.29516 5.98966 8.16133 6.08912 8.06087L6.18029 7.96876V6.24713L6.17781 6.20664C6.17698 6.19922 6.09548 5.45585 6.5635 4.859C6.963 4.34962 7.64763 4.09091 8.59776 4.09091C9.54431 4.09091 10.2267 4.34745 10.6273 4.85313C11.0948 5.4438 11.0183 6.20107 11.0177 6.20725L11.0152 7.96938L11.1064 8.06149C11.2056 8.16164 11.2603 8.29578 11.2603 8.43951V9.53524C11.2603 9.75562 11.1263 9.9556 10.934 10.0221L10.7967 10.0693L10.7525 10.2223C10.5895 10.7889 10.3574 11.3122 10.0629 11.7777C9.99051 11.8921 9.92005 11.9934 9.85955 12.071L9.79103 12.1585V13.3018C9.79103 13.8001 10.0386 14.2483 10.437 14.4708L12.7763 15.7792C12.7912 15.7875 12.8058 15.7962 12.8205 15.8048C12.7909 15.8299 12.7605 15.8531 12.7307 15.8772Z" fill="black" stroke="black"/>
</svg>
