<svg width="20" height="20" viewBox="0 0 20 20" fill="none" xmlns="http://www.w3.org/2000/svg">
<path d="M7 19H3C2.46957 19 1.96086 18.7893 1.58579 18.4142C1.21071 18.0391 1 17.5304 1 17V3C1 2.46957 1.21071 1.96086 1.58579 1.58579C1.96086 1.21071 2.46957 1 3 1H7" stroke="#060606" stroke-width="2" stroke-linecap="round" stroke-linejoin="round"/>
<path fill-rule="evenodd" clip-rule="evenodd" d="M14.7071 4.29289C14.3166 3.90237 13.6834 3.90237 13.2929 4.29289C12.9024 4.68342 12.9024 5.31658 13.2929 5.70711L16.5858 9H7C6.44772 9 6 9.44772 6 10C6 10.5523 6.44772 11 7 11H16.5858L13.2929 14.2929C12.9024 14.6834 12.9024 15.3166 13.2929 15.7071C13.6834 16.0976 14.3166 16.0976 14.7071 15.7071L19.7065 10.7077L19.7071 10.7071C19.7093 10.7049 19.7115 10.7027 19.7136 10.7005C19.9038 10.5069 19.9992 10.2551 20 10.003M19.7136 9.29945C19.8063 9.3938 19.8764 9.50195 19.9241 9.61722C19.8746 9.49788 19.8027 9.39021 19.7136 9.29945ZM14.7071 4.29289L19.7065 9.29226L14.7071 4.29289Z" fill="#060606"/>
</svg>
