<svg width="18" height="21" viewBox="0 0 18 21" fill="none" xmlns="http://www.w3.org/2000/svg">
<path d="M17.4901 6.51996C17.4844 6.49359 17.4844 6.46632 17.4901 6.43996C17.4852 6.41688 17.4852 6.39304 17.4901 6.36996V6.27996L17.4301 6.12996C17.4057 6.08903 17.3754 6.05196 17.3401 6.01996L17.2501 5.93996H17.2001L13.2601 3.44996L9.54007 1.14996C9.454 1.08169 9.35552 1.03075 9.25007 0.999959H9.17007C9.08069 0.98504 8.98945 0.98504 8.90007 0.999959H8.80007C8.68391 1.02565 8.57254 1.06952 8.47007 1.12996L1.00007 5.77996L0.910068 5.84996L0.820068 5.92996L0.720068 5.99996L0.670068 6.05996L0.610068 6.20996V6.29996V6.35996C0.600355 6.42627 0.600355 6.49365 0.610068 6.55996V15.29C0.609728 15.4599 0.652704 15.6271 0.734939 15.7759C0.817174 15.9246 0.935955 16.0499 1.08007 16.14L8.58007 20.78L8.73007 20.84H8.81007C8.97925 20.8936 9.16089 20.8936 9.33007 20.84H9.41007L9.56007 20.78L17.0001 16.21C17.1442 16.1199 17.263 15.9946 17.3452 15.8459C17.4274 15.6971 17.4704 15.5299 17.4701 15.36V6.62996C17.4701 6.62996 17.4901 6.55996 17.4901 6.51996ZM9.00007 3.16996L10.7801 4.26996L5.19007 7.72996L3.40007 6.62996L9.00007 3.16996ZM8.00007 18.17L2.50007 14.81V8.41996L8.00007 11.82V18.17ZM9.00007 10.06L7.09007 8.90996L12.6801 5.43996L14.6001 6.62996L9.00007 10.06ZM15.5001 14.78L10.0001 18.2V11.82L15.5001 8.41996V14.78Z" fill="#060606"/>
</svg>
