<svg width="24" height="14" viewBox="0 0 24 14" fill="none" xmlns="http://www.w3.org/2000/svg">
<rect x="1" y="1" width="22" height="12" rx="1" stroke="#060606" stroke-width="2"/>
<path d="M8.29688 10L7.72656 8.41406H5.54297L4.98438 10H4L6.13672 4.26562H7.15234L9.28906 10H8.29688ZM7.48047 7.60938L6.94531 6.05469C6.90625 5.95052 6.85156 5.78646 6.78125 5.5625C6.71354 5.33854 6.66667 5.17448 6.64062 5.07031C6.57031 5.39062 6.46745 5.74089 6.33203 6.12109L5.81641 7.60938H7.48047ZM14.6875 7.08984C14.6875 8.03255 14.4258 8.75391 13.9023 9.25391C13.3789 9.7513 12.625 10 11.6406 10H10.043V4.28906H11.8086C12.7174 4.28906 13.4245 4.53385 13.9297 5.02344C14.4349 5.51302 14.6875 6.20182 14.6875 7.08984ZM13.7031 7.12109C13.7031 5.75391 13.0638 5.07031 11.7852 5.07031H10.9766V9.21484H11.6406C13.0156 9.21484 13.7031 8.51693 13.7031 7.12109ZM19.1719 4.28906H20.1406L18.1406 10H17.1562L15.1641 4.28906H16.125L17.3164 7.83984C17.3789 8.00911 17.4453 8.22786 17.5156 8.49609C17.5859 8.76172 17.6315 8.95964 17.6523 9.08984C17.6862 8.89193 17.7383 8.66276 17.8086 8.40234C17.8789 8.14193 17.9362 7.94922 17.9805 7.82422L19.1719 4.28906Z" fill="#060606"/>
</svg>
