<svg width="18" height="18" viewBox="0 0 18 18" fill="none" xmlns="http://www.w3.org/2000/svg">
<path d="M6.55903 9.93062C6.55903 9.70513 6.37614 9.52246 6.15047 9.52246H4.72475C4.49934 9.52246 4.31641 9.70513 4.31641 9.93062V11.3562C4.31641 11.5819 4.49934 11.7647 4.72475 11.7647H6.15047C6.37614 11.7647 6.55903 11.5819 6.55903 11.3562V9.93062Z" fill="black"/>
<path d="M10.1213 9.93062C10.1213 9.70513 9.93838 9.52246 9.71315 9.52246H8.28725C8.06184 9.52246 7.87891 9.70513 7.87891 9.93062V11.3562C7.87891 11.5819 8.06184 11.7647 8.28725 11.7647H9.71315C9.93838 11.7647 10.1213 11.5819 10.1213 11.3562V9.93062Z" fill="black"/>
<path d="M13.684 9.93062C13.684 9.70513 13.5011 9.52246 13.2757 9.52246H11.85C11.6243 9.52246 11.4414 9.70513 11.4414 9.93062V11.3562C11.4414 11.5819 11.6243 11.7647 11.85 11.7647H13.2757C13.5011 11.7647 13.684 11.5819 13.684 11.3562V9.93062Z" fill="black"/>
<path d="M6.55903 13.4943C6.55903 13.2685 6.37614 13.0859 6.15047 13.0859H4.72475C4.49934 13.0859 4.31641 13.2685 4.31641 13.4943V14.9196C4.31641 15.1452 4.49934 15.3279 4.72475 15.3279H6.15047C6.37614 15.3279 6.55903 15.1452 6.55903 14.9196V13.4943Z" fill="black"/>
<path d="M10.1213 13.4943C10.1213 13.2685 9.93838 13.0859 9.71315 13.0859H8.28725C8.06184 13.0859 7.87891 13.2685 7.87891 13.4943V14.9196C7.87891 15.1452 8.06184 15.3279 8.28725 15.3279H9.71315C9.93838 15.3279 10.1213 15.1452 10.1213 14.9196V13.4943Z" fill="black"/>
<path d="M13.684 13.4943C13.684 13.2685 13.5011 13.0859 13.2759 13.0859H11.85C11.6243 13.0859 11.4414 13.2685 11.4414 13.4943V14.9196C11.4414 15.1452 11.6243 15.3279 11.85 15.3279H13.2759C13.5011 15.3279 13.684 15.1452 13.684 14.9196V13.4943Z" fill="black"/>
<path d="M16.2335 2.00391V4.18131C16.2335 5.16547 15.4351 5.95855 14.4511 5.95855H13.3267C12.3426 5.95855 11.5337 5.16547 11.5337 4.18131V1.99609H6.46573V4.18131C6.46573 5.16547 5.65679 5.95855 4.67285 5.95855H3.54824C2.56426 5.95855 1.76591 5.16547 1.76591 4.18131V2.00391C0.905904 2.02983 0.199219 2.74146 0.199219 3.61614V16.3767C0.199219 17.2678 0.921502 17.9997 1.81263 17.9997H16.1868C17.0766 17.9997 17.8002 17.2663 17.8002 16.3767V3.61614C17.8002 2.74146 17.0935 2.02983 16.2335 2.00391ZM15.7113 15.5821C15.7113 15.9672 15.399 16.2796 15.0138 16.2796H2.95491C2.56965 16.2796 2.2574 15.9672 2.2574 15.5821V8.99079C2.2574 8.60553 2.56961 8.2931 2.95491 8.2931H15.0137C15.399 8.2931 15.7112 8.60553 15.7112 8.99079L15.7113 15.5821Z" fill="black"/>
<path d="M3.54489 4.79156H4.65707C4.99465 4.79156 5.26837 4.51825 5.26837 4.18067V0.611109C5.26837 0.273493 4.99465 0 4.65707 0H3.54489C3.20727 0 2.93359 0.273493 2.93359 0.611109V4.18067C2.93359 4.51825 3.20727 4.79156 3.54489 4.79156Z" fill="black"/>
<path d="M13.3105 4.79156H14.4227C14.76 4.79156 15.0337 4.51825 15.0337 4.18067V0.611109C15.0338 0.273493 14.7601 0 14.4227 0H13.3105C12.9729 0 12.6992 0.273493 12.6992 0.611109V4.18067C12.6992 4.51825 12.9729 4.79156 13.3105 4.79156Z" fill="black"/>
</svg>
